HIERARCHY
ROOT mixamorig:Hips
{
	OFFSET -0.000419 2.091508 -0.014164
	CHANNELS 6 Xposition Yposition Zposition Xrotation Yrotation Zrotation
	JOINT mixamorig:Spine
	{
		OFFSET -0.001948 0.198048 -0.038897
		CHANNELS 6 Xposition Yposition Zposition Xrotation Yrotation Zrotation
		JOINT mixamorig:Spine1
		{
			OFFSET -0.002704 0.235003 -0.023603
			CHANNELS 3 Xrotation Yrotation Zrotation
			JOINT mixamorig:Spine2
			{
				OFFSET -0.001091 0.278075 -0.011954
				CHANNELS 3 Xrotation Yrotation Zrotation
				JOINT mixamorig:Neck
				{
					OFFSET 0.005730 0.310620 0.037617
					CHANNELS 6 Xposition Yposition Zposition Xrotation Yrotation Zrotation
					JOINT mixamorig:Head
					{
						OFFSET 0.010419 0.222311 0.065134
						CHANNELS 6 Xposition Yposition Zposition Xrotation Yrotation Zrotation
						End Site
						{
							OFFSET 0.010419 0.222311 0.065135
						}
					}
				}
				JOINT mixamorig:LeftShoulder
				{
					OFFSET 0.129541 0.188949 0.026781
					CHANNELS 6 Xposition Yposition Zposition Xrotation Yrotation Zrotation
					JOINT mixamorig:LeftArm
					{
						OFFSET 0.262609 0.007741 -0.040542
						CHANNELS 3 Xrotation Yrotation Zrotation
						JOINT mixamorig:LeftForeArm
						{
							OFFSET 0.551277 -0.000001 -0.000000
							CHANNELS 6 Xposition Yposition Zposition Xrotation Yrotation Zrotation
							JOINT mixamorig:LeftHand
							{
								OFFSET 0.527734 -0.000000 0.000000
								CHANNELS 3 Xrotation Yrotation Zrotation
								End Site
								{
									OFFSET 0.527734 0.000000 0.000000
								}
							}
						}
					}
				}
				JOINT mixamorig:RightShoulder
				{
					OFFSET -0.126373 0.192154 0.021809
					CHANNELS 6 Xposition Yposition Zposition Xrotation Yrotation Zrotation
					JOINT mixamorig:RightArm
					{
						OFFSET -0.263354 0.004609 -0.054230
						CHANNELS 3 Xrotation Yrotation Zrotation
						JOINT mixamorig:RightForeArm
						{
							OFFSET -0.558427 -0.000001 -0.000000
							CHANNELS 6 Xposition Yposition Zposition Xrotation Yrotation Zrotation
							JOINT mixamorig:RightHand
							{
								OFFSET -0.503137 0.000000 -0.000000
								CHANNELS 6 Xposition Yposition Zposition Xrotation Yrotation Zrotation
								End Site
								{
									OFFSET -0.503137 0.000000 0.000000
								}
							}
						}
					}
				}
			}
		}
	}
	JOINT mixamorig:LeftUpLeg
	{
		OFFSET 0.185244 -0.138385 0.026620
		CHANNELS 6 Xposition Yposition Zposition Xrotation Yrotation Zrotation
		JOINT mixamorig:LeftLeg
		{
			OFFSET -0.004065 -0.852313 -0.015108
			CHANNELS 3 Xrotation Yrotation Zrotation
			JOINT mixamorig:LeftFoot
			{
				OFFSET 0.004508 -0.854151 -0.051445
				CHANNELS 3 Xrotation Yrotation Zrotation
				JOINT mixamorig:LeftToeBase
				{
					OFFSET 0.026925 -0.213949 0.242907
					CHANNELS 3 Xrotation Yrotation Zrotation
					End Site
					{
						OFFSET -0.005614 0.004268 0.324736
					}
				}
			}
		}
	}
	JOINT mixamorig:RightUpLeg
	{
		OFFSET -0.184403 -0.144117 0.001603
		CHANNELS 6 Xposition Yposition Zposition Xrotation Yrotation Zrotation
		JOINT mixamorig:RightLeg
		{
			OFFSET 0.005492 -0.848120 0.010027
			CHANNELS 6 Xposition Yposition Zposition Xrotation Yrotation Zrotation
			JOINT mixamorig:RightFoot
			{
				OFFSET -0.005940 -0.852616 -0.051576
				CHANNELS 3 Xrotation Yrotation Zrotation
				JOINT mixamorig:RightToeBase
				{
					OFFSET -0.031537 -0.214911 0.248182
					CHANNELS 6 Xposition Yposition Zposition Xrotation Yrotation Zrotation
					End Site
					{
						OFFSET -0.045720 0.003764 0.326606
					}
				}
			}
		}
	}
}
MOTION
Frames: 4
Frame Time: 0.033333
-1.430880 1.868895 -0.151616 20.845263 19.961704 -3.946995 -0.001948 0.198048 -0.038897 21.282805 -11.761400 8.781440 -1.054450 -1.755677 1.914139 -1.004055 -1.661492 2.049356 0.005730 0.310619 0.037616 -9.379730 1.093802 -1.085296 0.010419 0.222311 0.065134 -25.374523 5.784392 -5.773523 0.129541 0.188949 0.026781 0.539365 -2.974925 10.362130 -37.652856 -16.200104 -18.189173 0.551277 -0.000001 -0.000000 -0.000164 -78.673712 -0.000134 24.410109 -20.418038 27.383371 -0.126373 0.192154 0.021809 0.256770 -0.281200 -0.671601 -7.529642 -38.427522 31.762241 -0.558427 -0.000001 -0.000000 -0.000015 56.590730 0.000027 -0.503137 -0.000000 -0.000000 -5.351647 2.307372 -12.387417 0.185244 -0.138385 0.026620 -13.793248 9.066836 -0.569943 52.801232 -4.286233 7.804675 3.815905 -5.130849 -12.490942 -16.531071 0.000025 0.000008 -0.184403 -0.144117 0.001603 -63.404899 -1.961230 -18.240034 0.005493 -0.848120 0.010027 47.004269 2.230518 6.245653 5.453910 -6.190596 3.189080 -0.031537 -0.214911 0.248182 -11.462823 0.000012 -0.000028 
-1.440665 1.882286 -0.180656 20.527485 22.473049 -6.029653 -0.001948 0.198048 -0.038898 19.838923 -12.929508 9.949227 -1.630176 -2.227457 2.788742 -1.561627 -2.118569 2.940011 0.005730 0.310620 0.037617 -8.749576 1.185837 -0.822407 0.010418 0.222311 0.065134 -20.361431 6.138077 -5.281525 0.129541 0.188949 0.026781 0.660276 -3.744357 8.896410 -35.837869 -18.371833 -20.130683 0.551277 -0.000001 -0.000000 -0.000385 -85.902709 -0.000356 25.615067 -20.843465 25.561244 -0.126373 0.192154 0.021809 0.276410 -0.227958 -0.241881 -4.699092 -40.013376 34.811937 -0.558427 -0.000001 -0.000001 -0.000028 58.712067 0.000028 -0.503137 -0.000000 -0.000000 -3.185652 4.675762 -12.497189 0.185244 -0.138385 0.026620 -9.778874 10.123851 -0.298768 49.006047 -6.885246 6.904284 4.006899 -3.890774 -10.496636 -12.953315 0.000005 0.000007 -0.184403 -0.144117 0.001603 -59.714220 -1.241736 -15.809103 0.005493 -0.848120 0.010027 43.309751 -2.548563 4.103139 4.300997 -3.170254 5.465239 -0.031537 -0.214911 0.248182 -9.720679 0.000010 -0.000021 
-1.448556 1.890726 -0.211645 20.137300 24.900993 -7.943346 -0.001948 0.198048 -0.038898 18.295978 -14.455279 10.956931 -1.362202 -2.507897 3.446803 -1.274102 -2.395301 3.584488 0.005730 0.310620 0.037616 -8.277330 1.323896 -0.652268 0.010419 0.222311 0.065134 -16.941741 6.776372 -4.967811 0.129541 0.188949 0.026781 0.655677 -3.847163 8.158582 -34.286027 -21.413862 -21.723881 0.551277 -0.000001 -0.000000 0.000757 -92.746162 0.000827 27.227187 -20.874933 24.257063 -0.126373 0.192153 0.021809 0.294987 -0.172061 0.171438 -2.021227 -41.210349 37.846464 -0.558427 -0.000001 -0.000001 -0.000027 60.340528 0.000027 -0.503137 0.000000 0.000000 -1.303990 6.570019 -12.702856 0.185244 -0.138385 0.026620 -6.034789 10.934496 0.185124 45.102225 -8.577324 6.540227 3.394382 -3.065021 -9.109352 -9.952407 0.000002 -0.000000 -0.184403 -0.144117 0.001603 -56.725203 -1.023405 -14.115349 0.005493 -0.848120 0.010027 40.069107 -5.717004 2.801614 3.300781 -1.922267 5.726060 -0.031537 -0.214911 0.248182 -8.137735 0.000008 -0.000019 
-1.456153 1.892676 -0.243932 19.632306 27.192383 -9.575237 -0.001948 0.198048 -0.038898 16.760396 -16.313167 11.660634 -0.180453 -2.584548 3.868364 -0.071526 -2.481015 3.958398 0.005730 0.310620 0.037617 -8.026530 1.497951 -0.594825 0.010419 0.222311 0.065134 -15.400690 7.613195 -4.836291 0.129541 0.188949 0.026782 0.524935 -3.065362 8.115533 -33.121985 -25.728482 -22.769132 0.551277 -0.000001 -0.000000 0.000141 -98.910346 0.000216 29.624142 -20.253492 23.827730 -0.126373 0.192154 0.021809 0.312058 -0.116338 0.564963 0.424710 -42.007890 40.823627 -0.558428 -0.000000 -0.000000 -0.000012 61.245739 0.000012 -0.503137 0.000000 0.000000 0.035152 7.643954 -12.884330 0.185244 -0.138385 0.026620 -3.055273 11.525586 0.856564 41.579333 -8.900420 6.728507 1.898792 -2.903080 -8.157114 -10.849012 -0.078921 2.217433 -0.184403 -0.144116 0.001603 -54.775826 -1.240301 -13.410272 0.005492 -0.848120 0.010027 37.897093 -6.791192 2.448329 3.528134 -2.871261 5.534919 -0.031537 -0.214911 0.248182 -7.194402 0.000002 -0.000018 
